<?xml version="1.0" encoding="UTF-8" standalone="no"?>
<!-- Created with Inkscape (http://www.inkscape.org/) -->

<svg
   width="37.491455mm"
   height="17.105312mm"
   viewBox="0 0 37.491455 17.105312"
   version="1.1"
   id="svg1"
   xmlns="http://www.w3.org/2000/svg"
   xmlns:svg="http://www.w3.org/2000/svg">
  <defs
     id="defs1" />
  <g
     id="layer1"
     transform="translate(-57.679166,-128.32291)">
    <g
       id="logo"
       transform="matrix(0.13229166,0,0,0.13229166,57.679166,128.23031)"
       style="overflow:hidden;fill:currentColor">
	<g
   id="g3">
		<path
   d="m 78.2,35.2 v 69.4 c 0,15.5 8.1,23.7 23.4,23.7 h 43.3 v -19.1 h -33.7 c -5.6,0 -8.8,-3.4 -8.8,-9.3 v -9.5 -0.3 h 0.3 36.8 V 71.5 h -36.8 -0.3 V 71.2 54.5 54.2 h 0.3 40.5 v -19 z"
   id="path1" />

		<path
   d="m 0.8,128.5 c 7.9,0.9 18.4,1.5 28.1,1.5 13.4,0 20.7,-1.4 26.9,-5 8.5,-5 12.8,-13.6 12.8,-25.7 0,-16.1 -7.2,-24.2 -25,-28.2 -1.4,-0.3 -2.7,-0.6 -4,-0.9 C 29.3,68 24.5,67 24.5,60.4 c 0,-7.5 7.8,-8.1 16.4,-8.1 8.3,0 16.1,1.3 23.2,2.2 L 64,35.5 C 61.8,35.2 50.2,33.3 38.2,33.3 31.8,33.3 24.4,33.5 17.3,35.9 6,39.7 0,49 0,63 0,78.4 7,85.9 25.9,90.4 40.2,93.9 44,95 44,101.5 c 0,8.3 -8.2,8.9 -18.9,8.9 -7.7,0 -15.8,-0.6 -24.2,-1.9 v 20 z"
   id="path2" />

		<path
   d="m 155.6,128.5 c 8,0.9 18.4,1.5 28.1,1.5 13.4,0 20.7,-1.4 26.9,-5 8.5,-5 12.8,-13.6 12.8,-25.7 0,-16.1 -7.2,-24.2 -25,-28.2 -1.4,-0.3 -2.7,-0.6 -4,-0.9 -10.4,-2.2 -15.1,-3.3 -15.1,-9.8 0,-7.5 7.8,-8.1 16.4,-8.1 8.3,0 16.1,1.3 23.2,2.2 l -0.1,-19 C 216.6,35.2 205,33.3 193,33.3 c -6.4,0 -13.8,0.2 -20.9,2.6 -11.3,3.8 -17.3,13.1 -17.3,27.1 0,15.4 7,22.9 25.9,27.4 14.4,3.5 18.1,4.7 18.1,11.1 0,8.3 -8.2,8.9 -18.9,8.9 -7.7,0 -15.8,-0.6 -24.2,-1.9 v 20 z"
   id="path3" />

	</g>

	<path
   d="m 256.8,0.7 26.6,54.8 c -8.3,-3 -17.3,-4.6 -26.6,-4.6 -9.3,0 -18.3,1.6 -26.6,4.6 z"
   id="path4" />

</g>
  </g>
</svg>
